<?xml version="1.0" encoding="UTF-8"?>
<svg width="89px" height="20px" viewBox="0 0 89 20" version="1.1" xmlns="http://www.w3.org/2000/svg" xmlns:xlink="http://www.w3.org/1999/xlink">
    <!-- Generator: Sketch 54.1 (76490) - https://sketchapp.com -->
    <title>Logo</title>
    <desc>Created with Sketch.</desc>
    <defs>
        <polygon id="path-1" points="0.1249125 0.0362125 0.2499125 0.0362125 0.2499125 0.125 0.1249125 0.125"></polygon>
        <polygon id="path-3" points="0.0154343723 0.00427632384 7.61848325 0.00427632384 7.61848325 11.8764636 0.0154343723 11.8764636"></polygon>
    </defs>
    <g id="Desktop" stroke="none" stroke-width="1" fill="none" fill-rule="evenodd">
        <g id="Dashboard" transform="translate(-638.000000, -24.000000)">
            <g id="Logo" transform="translate(638.000000, 24.000000)">
                <g id="Group-3" transform="translate(88.571429, 19.523810)">
                    <mask id="mask-2" fill="white">
                        <use xlink:href="#path-1"></use>
                    </mask>
                    <g id="Clip-2"></g>
                    <path d="M0.1772875,0.0724625 C0.1829125,0.0869625 0.1897875,0.1050875 0.1975375,0.1249625 C0.1907875,0.1077125 0.1841625,0.0904625 0.1772875,0.0724625" id="Fill-1" fill="#0079BF" mask="url(#mask-2)"></path>
                </g>
                <path d="M59.6494231,7.01638754 C59.1423662,6.49659574 58.4635711,6.60683698 57.9484984,7.01638754 C56.9695694,7.79483903 56.0821489,8.69465768 55.3018432,9.68537445 C55.3142572,9.37762978 55.304326,9.06966696 55.2243092,8.76992132 C54.8733844,7.456189 53.3495892,6.93108875 52.348315,7.84923246 C51.863958,8.29339703 51.9069457,9.14049477 52.348315,9.59287653 C52.5053693,9.75394799 52.6895924,9.85626292 52.8830373,9.90694771 C52.8636006,10.2297451 52.8377086,10.5523971 52.8108235,10.8743946 C52.7532228,11.563984 52.6830662,12.2524828 52.5999991,12.9393817 C52.4386177,14.2747841 52.2031782,15.6710519 51.9317027,17.0226706 C51.8091947,17.6533581 52.1071296,18.3841789 52.7717373,18.5393602 C53.3726437,18.6796342 54.1155657,18.3537826 54.2512679,17.6782278 C54.6171604,15.7944552 55.1867836,14.3100526 56.149539,12.7128635 C57.0568927,11.2074453 58.1981963,9.91407412 59.6494231,8.76003161 C60.163148,8.35157182 60.0681635,7.44564482 59.6494231,7.01638754" id="Fill-4" fill="#0079BF"></path>
                <path d="M62.6550365,12.0552853 C62.4622211,12.792309 62.2480372,13.5239598 62.0013019,14.2446498 C61.7705218,14.9186311 61.6266403,15.4764136 61.2577483,16.0036779 C61.2551841,16.0046092 61.194996,16.0825526 61.1865911,16.0908627 C61.1998396,16.0777528 61.11579,16.1519709 61.0636508,16.2001125 C61.0426384,16.2058436 60.9769658,16.2425945 60.9771082,16.24983 C60.9593011,16.2553462 60.9405681,16.2612207 60.9245417,16.2661638 C60.9221911,16.2650892 60.9199118,16.2640862 60.9175613,16.2630833 C60.9102247,16.2556328 60.9038142,16.2506181 60.9017486,16.251621 C60.8847962,16.2219624 60.8654221,16.1887218 60.8523873,16.1680181 C60.8389963,16.1341328 60.8231124,16.0949462 60.8194797,16.0831257 C60.7994645,16.0191519 60.7823697,15.9545334 60.7672693,15.8891985 C60.7644201,15.8767333 60.755018,15.8323886 60.7470404,15.7954944 C60.7416983,15.7530841 60.7320112,15.6837373 60.731014,15.6712721 C60.7243185,15.590105 60.7195462,15.5089378 60.7161985,15.4275557 C60.7087195,15.2450191 60.7090044,15.062196 60.7170532,14.8796594 C60.7442625,14.2690071 60.8889274,13.6334961 61.1345943,12.9638848 C61.2379468,12.682128 61.3137338,12.5184325 61.4733567,12.2116019 C61.6428804,11.8856437 61.8324905,11.570718 62.0391954,11.2672545 C62.3479707,10.8138502 62.7346699,10.3613772 63.1571257,9.9294647 C63.0033435,10.6412714 62.8393757,11.3507141 62.6550365,12.0552853 M65.7058215,17.0735372 C65.7051805,17.0715313 65.7045394,17.0695254 65.7038272,17.0673762 C65.7428603,17.0875068 65.714369,17.054696 65.6951373,17.0432338 C65.6842393,17.0151512 65.6740537,16.9968116 65.6836695,17.0399384 C65.6832421,17.0401533 65.6829572,17.0405115 65.6826723,17.0408697 C65.6694238,16.9897193 65.6506907,16.9166474 65.6476279,16.9040389 C65.6375847,16.862918 65.6293222,16.8213673 65.6215583,16.7796733 C65.6296784,16.8165675 65.6095207,16.6699221 65.6070989,16.637183 C65.6000473,16.5403985 65.5957736,16.4435423 65.5911438,16.3466145 C65.5809581,16.1347059 65.5721258,15.922654 65.5642194,15.7106737 C65.5313831,14.8389683 65.5159265,13.9666182 65.5178497,13.0942681 C65.5216248,11.3494246 65.5966284,9.6055124 65.7371621,7.86647167 C65.7506242,7.69955241 65.7232013,7.55125934 65.667287,7.42166409 C65.7066763,7.19757678 65.6726291,6.96016459 65.540073,6.73220877 C65.271613,6.27056599 64.54665,6.00220568 64.078323,6.34671842 C61.2982773,8.39151511 58.8181744,11.1326445 58.5867532,14.758231 C58.533688,15.5896751 58.6065547,16.4822275 58.9943223,17.2318597 C59.4555264,18.1233375 60.4302163,18.5766701 61.4036241,18.3619675 C62.3025982,18.1636703 62.9740686,17.4400431 63.3538586,16.629446 C63.3891879,16.5539383 63.4230927,16.4776426 63.4569974,16.4013469 C63.4585644,16.4302174 63.4594904,16.459088 63.4611287,16.487887 C63.5144788,17.445631 63.7422673,18.3454905 64.585327,18.8989747 C65.068612,19.2162646 65.7660096,18.9967622 66.047077,18.5134127 C66.3421052,18.0062074 66.1591905,17.3998535 65.7058215,17.0735372" id="Fill-6" fill="#0079BF"></path>
                <path d="M79.9946205,8.05646841 C79.94036,7.13169199 79.4089771,6.2618172 78.418511,6.19448365 C77.4203036,6.12664707 76.8047601,6.93191901 76.3412737,7.70880594 C75.6044255,8.94380537 74.9536553,10.2288199 74.3555831,11.5379078 L74.4562206,10.1180106 C74.5096288,9.36404723 74.6777367,8.51134717 74.4455674,7.77398367 C74.1006159,6.67853788 72.9144855,6.26778164 71.9341756,6.79064071 C71.2407925,7.1604363 70.7524486,7.86783385 70.2977688,8.4905794 C70.2459231,8.56157786 70.1949297,8.63329492 70.1445044,8.70544315 C70.1506832,8.56222461 70.1567911,8.41900606 70.1628989,8.27585938 C70.1870463,7.71175223 69.6556633,7.17265263 69.0975762,7.19794763 C68.4997171,7.22503914 68.0581053,7.67151019 68.0322535,8.27585938 C67.9378659,10.4825603 67.8434783,12.6893331 67.7490907,14.8960341 C67.6310529,15.7643998 67.5924172,16.6438321 67.6370898,17.5140661 C67.6659955,18.0762331 68.1063999,18.6189976 68.7024125,18.5919779 C69.3002716,18.5648864 69.7418834,18.1183435 69.7677352,17.5140661 C69.8028909,16.6918351 69.8381176,15.8695321 69.8732732,15.047301 C69.8821509,14.9916808 69.8908865,14.9361324 69.9004744,14.8806559 C69.9570076,14.5532581 70.0256854,14.22816 70.1064368,13.9060081 C70.4245422,12.6360124 70.826524,11.6621551 71.4922797,10.5519778 C71.6425612,10.3013993 71.8012943,10.0559947 71.9681238,9.81641086 C72.1453935,9.56166438 72.2209604,9.45890346 72.4014261,9.24051854 C72.3734436,9.67628233 72.3259302,10.1126929 72.29532,10.5443606 L72.1292006,12.8894654 C72.0067595,14.6185796 71.8843185,16.3477656 71.7618063,18.0769517 C71.7239519,18.6108773 72.196316,19.0691335 72.6855122,19.1356766 C73.242889,19.2114179 73.6591461,18.8713008 73.8543843,18.3635325 C74.939451,15.5419188 75.9985949,12.7871357 77.4326613,10.1193041 C77.4798906,10.0314902 77.5282563,9.94432306 77.5761958,9.85694034 C77.5357136,10.0795651 77.4964387,10.3024772 77.4587972,10.5256049 C77.3190269,11.3543754 77.200563,12.1865232 77.094954,13.0204676 C76.8669039,14.8203647 76.7320341,16.6311127 76.6835974,18.4450226 C76.6684698,19.0091297 77.1843701,19.5485168 77.7489201,19.5229343 C78.3389669,19.4962021 78.79805,19.0494436 78.8142429,18.4450226 C78.8626796,16.6308253 78.9992539,14.8207958 79.2255995,13.0204676 C79.3249586,12.2302146 79.4627403,11.3645796 79.6089736,10.5488878 C79.7531473,9.74483752 80.0429861,8.87992113 79.9946205,8.05646841" id="Fill-8" fill="#0079BF"></path>
                <g id="Group-12" transform="translate(81.428571, 6.666667)">
                    <mask id="mask-4" fill="white">
                        <use xlink:href="#path-3"></use>
                    </mask>
                    <g id="Clip-11"></g>
                    <path d="M4.140903,5.89382925 C3.89737566,6.52795154 3.65370723,7.08522119 3.32227866,7.727867 C3.17173192,8.0199211 3.01257848,8.30767822 2.84397178,8.5897295 C2.75952734,8.73103691 2.67289594,8.87107636 2.58365432,9.00942519 C2.4652769,9.19292759 2.42661728,9.26428571 2.3440776,9.35522682 C2.33010935,9.37058326 2.24030335,9.45602987 2.1798448,9.51710341 C2.1754709,9.50026768 2.17088536,9.48364328 2.16658201,9.46673711 C2.16298413,9.45278952 2.15543563,9.4077064 2.1495097,9.37283742 C2.14668783,9.33930685 2.14323104,9.2995069 2.14273721,9.28633418 C2.14047972,9.2218794 2.13744621,9.15749507 2.13638801,9.09289941 C2.13074427,8.74864751 2.14534744,8.40390251 2.17688183,8.0611299 C2.20376014,7.76865314 2.22280776,7.63354466 2.29765785,7.26379262 C2.36601764,6.92630318 2.45187302,6.59212454 2.55402469,6.26322908 C2.64072663,5.98406593 2.73808113,5.70694562 2.85010935,5.43672866 C2.85815168,5.41947027 2.89222575,5.34106791 2.89497707,5.3350803 C2.92714638,5.26562412 2.95868078,5.19588617 2.9917672,5.12678219 C3.07437743,4.95412792 3.16171429,4.78372781 3.25377778,4.61593407 C3.61067372,3.96483516 3.96926279,3.45152156 4.41201411,2.95912933 C4.53836332,2.81859679 4.66795767,2.68052973 4.80637037,2.55176106 C4.98316049,2.38741899 4.92559436,2.42426036 5.12841623,2.29422372 C5.19141446,2.25386024 5.25645855,2.2182164 5.3214321,2.18102282 C5.3377284,2.17172443 5.3495097,2.16475063 5.35945679,2.15876303 C4.98958025,3.41524373 4.61067372,4.67038602 4.140903,5.89382925 M7.58471252,10.5410538 C6.88439506,7.82007608 7.21667019,4.90876303 7.53737566,2.10240913 C7.58160847,1.71483516 7.31063845,1.36367991 6.97561199,1.18384052 C7.0067231,0.697858552 6.73152028,0.155593125 6.21264903,0.0566920259 C4.24926279,-0.317709214 2.80742857,1.38608059 1.8403739,2.86065089 C0.953037037,4.21363764 0.366723104,5.78034658 0.142948854,7.38107918 C0.0232310406,8.23751761 -0.0586031746,9.12769794 0.115717813,9.9830093 C0.302948854,10.9021414 1.02189065,11.7342068 2.01688183,11.7495633 C3.01342504,11.7649901 3.74929806,11.0489434 4.27529453,10.2827416 C4.59959788,9.81035503 4.88693474,9.31056636 5.14880423,8.79887292 C5.22189065,9.57099183 5.34746384,10.3397295 5.54386596,11.1028318 C5.68615873,11.6555931 6.30139683,11.9901944 6.84559436,11.8408566 C7.40608818,11.6870104 7.72742857,11.0956467 7.58471252,10.5410538" id="Fill-10" fill="#0079BF" mask="url(#mask-4)"></path>
                </g>
                <path d="M13.2810958,2.71359554 C11.4594566,1.61571596 9.25833602,1.81412536 7.26947864,2.26567778 C7.14286551,2.29446995 7.01489172,2.32468747 6.88591533,2.35568894 C6.85125427,2.32917734 6.81516094,2.30387729 6.77620305,2.28121415 C6.28994561,1.99813867 5.57975194,2.15314601 5.30647382,2.66470587 C5.29372658,2.68865183 5.28126578,2.71266906 5.26851853,2.73661503 C4.91424525,2.81009207 4.56598753,2.87024204 4.23291193,2.90345281 C3.73648533,2.95298389 3.17202566,2.97464929 2.7080401,2.90167112 C2.66965513,2.89561336 2.54182456,2.86739133 2.4722876,2.8495744 C2.43504845,2.84009579 2.17337176,2.74994209 2.26489415,2.79027964 C2.35648815,2.83054591 2.24076031,2.78258272 2.17000591,2.74972829 C2.18669192,2.77773651 2.19779205,2.80859545 2.20187404,2.84308903 C2.18769451,2.80909432 2.17229755,2.77574102 2.15596962,2.74310039 C2.12216792,2.72692261 2.10755871,2.71765781 2.1490947,2.73041473 C2.14465464,2.72172007 2.13985652,2.71338174 2.13527324,2.70482961 C2.14422496,2.71402315 2.15253216,2.72357303 2.15969353,2.73369305 C2.15997999,2.73376432 2.1600516,2.73376432 2.16033806,2.73383558 C2.21383354,2.77795032 2.20438052,2.76676128 2.1334829,2.7015513 C1.88806253,2.24586535 1.43424613,1.94497294 0.880456911,2.09641689 C0.374935369,2.23467631 -0.0939199276,2.87501698 0.130231146,3.41144928 C0.371426294,3.98886054 0.725055049,4.42630194 1.30748977,4.6924157 C1.87266558,4.95069 2.4800935,5.04191271 3.09847833,5.07398319 C3.43320105,5.09137252 3.76842507,5.08331927 4.10300456,5.05773415 C2.26840322,8.93676613 0.89033961,13.0275346 0.0249589164,17.2286255 C-0.0876179166,17.7748927 0.183798239,18.4096033 0.775184682,18.5436579 C1.31142853,18.6651694 1.97593262,18.3828066 2.09660181,17.7969857 C3.0467732,13.1846087 4.58983491,8.76230269 6.71798106,4.59370987 C7.22844396,4.47219837 7.73740296,4.34334629 8.25158977,4.23808383 C8.80588028,4.12469686 9.09820765,4.07787395 9.61533063,4.0479415 C9.85079667,4.03425809 10.0868356,4.02955442 10.3226597,4.03725133 C10.4587259,4.0417412 10.5942907,4.05093474 10.7298556,4.06333533 C10.7668083,4.06754013 10.7856427,4.06939309 10.7871466,4.06896548 C10.8444376,4.07794522 10.9018002,4.08692495 10.9588048,4.09782892 C11.5046449,4.20216489 11.7480601,4.28932534 12.1967203,4.55971516 C12.6930036,4.85882588 13.3769151,4.66889734 13.6664495,4.17622343 C13.9642195,3.66965232 13.7787399,3.01349021 13.2810958,2.71359554" id="Fill-13" fill="#0079BF"></path>
                <path d="M1.91411434,2.3994657 C1.92031434,2.4024657 1.92671434,2.4054657 1.93371434,2.4087657 C1.92921434,2.4010657 1.92451434,2.3935657 1.91931434,2.3862657 C1.91311434,2.3841657 1.90951434,2.3832657 1.90451434,2.3816657 C1.90761434,2.3876657 1.91111434,2.3933657 1.91411434,2.3994657" id="Fill-15" fill="#0079BF"></path>
                <path d="M17.5847945,8.211154 C17.4243873,7.62267503 16.8442092,7.35018755 16.2814773,7.46517769 C14.5648874,7.81605783 12.9531872,8.55320518 11.5427906,9.57487304 C11.7108968,8.65395506 11.8215078,7.72128887 11.872646,6.78314017 C11.9030181,6.22435215 11.3635244,5.69027099 10.8131533,5.71512025 C10.2130567,5.74217676 9.78622245,6.18455061 9.75366071,6.78314017 C9.64453297,8.78695914 9.21233061,10.7826612 8.48834398,12.6766165 C7.7143493,13.7786706 7.10775445,15.0002006 6.71616598,16.29756 C6.35932886,17.4798581 8.02760595,18.1300686 8.6527066,17.120505 C9.33911656,16.0119003 9.91957725,14.8437713 10.3921816,13.6341319 C10.4930453,13.4994902 10.5986414,13.3698326 10.7413197,13.2008007 C11.0739298,12.8069149 11.4319677,12.4347456 11.8116192,12.0868559 C11.9891195,11.9242321 12.1732593,11.7706508 12.3573285,11.6158591 C12.411292,11.5730671 12.4372849,11.5522051 12.4374262,11.5515643 C12.474579,11.5232262 12.5116613,11.4948168 12.5491673,11.4669059 C12.6592133,11.3850244 12.7706719,11.3049941 12.8834019,11.2269574 C13.2778863,10.9539004 13.6885457,10.7046957 14.1129078,10.4817644 C14.3402043,10.3623597 14.5717387,10.2510008 14.8065929,10.1473317 C14.8391547,10.1343019 14.9571115,10.0846745 14.9780895,10.0764152 C15.1052992,10.0262183 15.2333566,9.97837096 15.3622615,9.93287331 C15.8466615,9.76206133 16.341939,9.62770442 16.8447742,9.52496091 C17.4058815,9.41025557 17.7289561,8.73982386 17.5847945,8.211154" id="Fill-17" fill="#0079BF"></path>
                <path d="M30.4934929,16.68068 C30.4914929,16.68078 30.4894929,16.68088 30.4875929,16.68088 C30.4876929,16.68098 30.4877929,16.68108 30.4878929,16.68118 C30.4895929,16.68108 30.4915929,16.68088 30.4934929,16.68068" id="Fill-19" fill="#0079BF"></path>
                <path d="M23.8465762,6.69642999 C23.8459762,6.69422999 23.8452762,6.69212999 23.8446762,6.69012999 C23.8412762,6.68452999 23.8388762,6.68052999 23.8358762,6.67562999 C23.8340762,6.67462999 23.8315762,6.67332999 23.8297762,6.67232999 C23.8203762,6.66982999 23.8107762,6.66772999 23.8011762,6.66542999 C23.8090762,6.67992999 23.8234762,6.69182999 23.8465762,6.69642999" id="Fill-21" fill="#0079BF"></path>
                <path d="M23.8271262,6.68722999 C23.8273262,6.68722999 23.8275262,6.68722999 23.8276262,6.68722999 C23.8272262,6.68372999 23.8266262,6.68122999 23.8261262,6.67792999 C23.8240262,6.67672999 23.8221262,6.67572999 23.8201262,6.67462999 C23.8209262,6.67672999 23.8217262,6.67852999 23.8226262,6.68072999 C23.8243262,6.68312999 23.8254262,6.68472999 23.8271262,6.68722999" id="Fill-23" fill="#0079BF"></path>
                <path d="M45.546484,11.2645618 C45.4913786,12.5756968 45.1547427,14.0422716 44.6024739,15.2341928 C44.5362188,15.3773648 44.4687486,15.5205368 44.3908435,15.6577192 C44.3762631,15.6833372 44.208231,15.9455786 44.2286721,15.9250843 C44.1331133,16.0507927 44.0169703,16.1692127 43.8986831,16.2720454 C43.895038,16.2752206 43.8927509,16.2773133 43.8896061,16.2800555 C43.8823159,16.2839524 43.8735963,16.2888595 43.86116,16.2962201 C43.8355014,16.313395 43.8081988,16.3276112 43.7813966,16.3428376 C43.7701754,16.298818 43.7583109,16.2535716 43.7452315,16.2123664 C43.7423726,16.2032016 43.7399425,16.1960575 43.7375124,16.1889855 C43.7375124,16.188336 43.7375839,16.1880473 43.7376554,16.1873979 C43.7434446,16.0646481 43.7257194,15.937785 43.7296504,15.8139528 C43.732152,15.7352948 43.7402999,15.6572863 43.7443738,15.5787726 C43.7448026,15.5714841 43.7458032,15.561742 43.7470898,15.5512784 C43.8086277,15.1988328 43.8786708,14.848047 43.9547177,14.4985601 C44.1148878,13.7624223 44.3015027,13.0322018 44.5135619,12.3096307 C44.5233537,12.2762191 44.5339316,12.2434569 44.5437949,12.2101175 C44.9105923,11.5119376 45.2414389,10.7939849 45.5349769,10.0610222 C45.537264,10.0991966 45.5404803,10.137371 45.5423386,10.1755454 C45.5605641,10.5382381 45.5617077,10.9017247 45.546484,11.2645618 M21.1239383,9.36890399 C21.3648724,8.99856192 21.4237658,8.91961527 21.6922884,8.60844712 C21.9590956,8.29929953 22.2469158,8.00855359 22.5537477,7.73996178 C22.6096392,7.69110723 22.6667459,7.64384026 22.7231377,7.59563518 C22.7412203,7.58012007 22.7560151,7.56734716 22.7688802,7.55623402 C22.7751698,7.55204854 22.7831747,7.5466363 22.7947533,7.53848184 C22.9162567,7.45239102 23.0411908,7.37192894 23.1719142,7.3006316 C23.37604,7.18928363 23.6525675,7.1213058 23.8322496,7.0969146 C23.844257,7.09532701 23.8535484,7.09381158 23.8629828,7.09236831 C23.8754905,7.09489403 23.8879267,7.09792489 23.9002915,7.10102791 C23.8987906,7.09821354 23.8974326,7.09532701 23.8965749,7.09229615 C23.9027931,7.09597648 23.9108695,7.10052277 23.9208041,7.10600718 C23.9219477,7.10636799 23.9231627,7.10680097 23.9243778,7.10708963 C23.9245922,7.10752261 23.9248781,7.10795559 23.9250925,7.10838857 C23.9262361,7.10903804 23.9278085,7.10983183 23.9290235,7.11055346 C23.9296667,7.11286269 23.9306674,7.1161822 23.9314536,7.11878008 C23.9323827,7.12029551 23.9335977,7.12238825 23.9345984,7.12390368 C23.9338836,7.12375935 23.9333833,7.12354286 23.9327401,7.12339853 C23.9337407,7.12686237 23.9345269,7.12967674 23.9357419,7.13364572 C23.9391011,7.14526401 23.942103,7.15240818 23.9449619,7.15782043 C23.9428892,7.1698717 23.9406735,7.18394354 23.9383149,7.20039677 C23.93031,7.25574603 23.9273796,7.28598245 23.9273796,7.30048727 C23.9240204,7.31123961 23.9205183,7.32278573 23.9165158,7.33628027 C23.8884271,7.42987607 23.8634116,7.52412135 23.828676,7.61548009 C23.828533,7.60479992 23.7263272,7.81537243 23.7259698,7.8160219 C23.2834829,8.63637431 22.7361458,9.27776174 22.1606484,9.96720992 C21.4740111,10.7897994 20.7040367,11.6019974 19.9062595,12.3479494 C20.1048819,11.3210656 20.5217101,10.2944705 21.1239383,9.36890399 M51.7630995,7.30936336 C51.473707,6.80977682 50.7932163,6.61673999 50.2962673,6.92105263 C49.2669189,7.55132691 48.1454423,7.84813457 47.0015947,7.810321 C46.9325522,7.72473532 46.8569342,7.64311863 46.7734542,7.5664812 C46.6687468,7.47035969 46.5568207,7.38729973 46.439963,7.31629104 C46.550817,6.81215821 46.2870116,6.27786113 45.8095746,6.08395834 C45.3467895,5.8960451 44.7092539,6.03524811 44.4708213,6.52689668 C44.2999303,6.87912576 44.1349001,7.23438569 43.9755162,7.5922435 C43.890035,7.67984975 43.8107004,7.77676506 43.7396566,7.88414406 C43.6052166,8.08757241 43.5617613,8.30146443 43.5844896,8.50554225 C43.1973225,9.4465517 42.851681,10.4048803 42.5531399,11.3779303 C42.4155552,11.6317286 42.2720382,11.8857435 42.1204448,12.1412015 C41.6460811,12.9407709 41.0758012,13.7769993 40.5553377,14.4266133 C39.9812698,15.1430506 39.4124908,15.8439727 38.6521653,16.2199435 C38.6734641,16.2050779 38.4518276,16.2954263 38.4509699,16.2956428 C38.4361036,16.3000448 38.1803746,16.3453633 38.2560641,16.3428376 C38.1907381,16.3473839 38.1234824,16.348322 38.058085,16.3436314 C38.0873173,16.342116 37.9831817,16.3146218 37.9116376,16.2965088 C38.0003351,16.3065395 37.6557657,16.1262756 37.7604731,16.2286753 C37.7112284,16.1835011 37.6662722,16.1345743 37.6165272,16.0896166 C37.6058778,16.0770602 37.5970867,16.066813 37.5895106,16.0580091 C37.5696412,16.0284221 37.5492715,15.9991238 37.5308316,15.9685987 C37.4854465,15.8936932 37.4482807,15.8156847 37.4077558,15.7381813 C37.524542,15.9613824 37.3986788,15.7111922 37.3829548,15.6645747 C37.323704,15.4888571 37.2790336,15.3082324 37.2448697,15.1258757 C37.2392234,15.0956393 37.2145653,14.8839122 37.2195684,14.9482818 C37.2162807,14.9141486 37.2126356,14.8800875 37.2100626,14.8458099 C37.1929091,14.6230418 37.1884778,14.3993356 37.1939812,14.175918 C37.2047021,13.7461134 37.2521599,13.3156593 37.3076941,12.8894628 C37.3074082,12.8981946 37.3460749,12.6222421 37.3427872,12.6441076 C37.3612271,12.52143 37.3805962,12.3989689 37.4010373,12.2766521 C37.4419911,12.0320906 37.4868759,11.7881787 37.5358347,11.5451327 C37.5869376,11.291623 37.6426147,11.0391236 37.7023658,10.7876345 C39.2434581,8.18434339 40.5170999,5.42121057 41.5236485,2.56426546 C41.7004003,2.06244186 41.3644791,1.47474393 40.902909,1.28726368 C40.3715102,1.07142324 39.8931441,1.28509878 39.5641557,1.73012986 C38.2195416,3.54893371 37.165821,5.56243415 36.3903433,7.69161237 C36.1186044,8.43770874 35.8743111,9.2121653 35.6704712,10.0009102 C34.7095221,11.5996881 33.6532285,13.1296945 32.5202448,14.5508785 C32.1319341,15.0379808 31.7334029,15.5167121 31.324937,15.9866396 C31.1453978,16.1932431 30.9651439,16.3994136 30.7639485,16.585162 C30.719564,16.6260786 30.6734642,16.6680055 30.6262208,16.706685 C30.6207174,16.7094272 30.6071376,16.717726 30.577405,16.7369936 C30.5151524,16.777405 30.4527568,16.8165897 30.3869305,16.8507951 C30.3732793,16.8578671 30.3662749,16.8632072 30.3629872,16.8673205 C30.3752805,16.8643618 30.3789256,16.8632794 30.3625584,16.8680421 C30.359485,16.8725163 30.3610574,16.8755471 30.3652743,16.8773512 C30.3555541,16.8774234 30.3431178,16.8777842 30.3266076,16.8785058 C30.3264647,16.878578 30.3263218,16.878578 30.3261788,16.8786501 C30.3232484,16.8787223 30.3202466,16.8788666 30.3173162,16.8789388 C30.3105978,16.8792996 30.3045941,16.8795161 30.2968036,16.8799491 C30.2981616,16.881248 30.2993766,16.8824026 30.300806,16.8837737 C30.3000198,16.8835572 30.2995195,16.8834129 30.2986619,16.8831964 C30.2975183,16.881681 30.297018,16.8811037 30.2959459,16.8798047 C30.2922293,16.8799491 30.2885127,16.8800934 30.2847962,16.8802377 C30.2703587,16.8528878 30.2469157,16.8209917 30.2341936,16.8010024 C30.2326212,16.7985489 30.2314776,16.7970334 30.2300482,16.7947242 C30.2301911,16.7927758 30.2305485,16.7914769 30.2306199,16.7890233 C30.2323353,16.7218393 30.1999582,16.6343052 30.1756575,16.5577399 C30.1694394,16.516679 30.1527148,16.4191864 30.1502847,16.3701153 C30.1389206,16.1360176 30.1608627,15.9074764 30.1741566,15.6744611 C30.1587185,15.9459395 30.2036033,15.5050217 30.2131092,15.449023 C30.2376243,15.3050572 30.2630685,15.1613079 30.2893704,15.0177029 C30.3457623,14.7099986 30.4063711,14.4030881 30.4712682,14.0970435 C30.600991,13.4850266 30.7475813,12.8766178 30.9106103,12.2728274 C30.9564957,12.1027385 31.0040964,11.9330826 31.0526263,11.7637153 C33.3579752,8.65470379 35.0763195,5.12844406 36.0416999,1.36137539 C36.174496,0.843098555 35.9157652,0.285348397 35.4209604,0.0843736018 C34.897495,-0.128219485 34.4009748,0.0760748221 34.0821356,0.527239784 C32.5118825,2.74965298 31.2290207,5.14756733 30.2011018,7.67097366 C29.7803425,8.70370267 29.4003942,9.76457537 29.0738359,10.8429116 C28.5825332,11.4804022 28.0614979,12.0912645 27.458698,12.7394353 C26.9400928,13.2971855 26.399474,13.8340083 25.8378423,14.3475223 C25.2845729,14.8533871 24.6115154,15.4283121 24.1027734,15.8014685 C23.4297874,16.2949934 22.8054027,16.6719744 22.0419324,16.836146 C21.9387259,16.8583722 21.8516008,16.8530322 21.6244609,16.8575063 C21.5920123,16.8581558 21.5665681,16.8589496 21.5466987,16.8597434 C21.5392655,16.8568568 21.5246851,16.8532487 21.4993124,16.848558 C21.4003943,16.8305172 21.3056216,16.7927758 21.2075612,16.7740133 C21.192409,16.7711268 21.1801872,16.7687454 21.1691089,16.7666527 C21.0977078,16.7338184 21.0276647,16.6967986 20.960123,16.6569645 C20.9078766,16.6261507 20.8590608,16.5915124 20.807672,16.5596162 C20.8027404,16.5560802 20.7992382,16.5534823 20.7948069,16.5503071 C20.7657176,16.5253386 20.7369856,16.5000093 20.7093257,16.4734532 C20.6574366,16.4186091 20.6011876,16.3681669 20.5500847,16.3123125 C20.5512998,16.3136115 20.498553,16.2498191 20.463174,16.2082531 C20.4315831,16.1625015 20.381052,16.091998 20.38241,16.0940186 C20.3486035,16.0417723 20.3160834,15.9885158 20.2849214,15.9346098 C20.2198813,15.8222516 20.1614167,15.70578 20.1073834,15.5874322 C20.0990211,15.5608761 20.0460599,15.4272296 20.0402706,15.4102713 C20.0096089,15.3211496 19.9816631,15.2310898 19.9560045,15.1404527 C21.2572347,14.0839098 22.4679091,12.9262661 23.5562224,11.6412542 C24.2099108,10.8694677 24.8611692,10.062249 25.4032889,9.20530978 C25.9701381,8.30940239 26.3319324,7.16828411 25.8482058,6.1548227 C25.3695538,5.1519693 24.2954635,4.81489451 23.2713326,4.99299354 C22.3766386,5.14857762 21.6180998,5.68669936 20.9543338,6.28298472 C19.6048596,7.49540035 18.6145352,9.1177757 18.0744167,10.8528701 C17.7144092,12.009287 17.5315108,13.3022369 17.6601615,14.5396932 C17.5927628,14.7888009 17.6154197,15.0589082 17.7675848,15.3215104 C17.7760186,15.3361596 17.7862392,15.3500149 17.7956736,15.3642311 C17.8439176,15.5748036 17.902668,15.7823453 17.9726397,15.9857736 C18.5750823,17.7373934 20.0237605,19.164567 21.976249,19.0130241 C23.9877025,18.8568627 25.6521565,17.399164 27.099834,16.1078017 C27.4405439,15.8039942 27.7731774,15.4912385 28.0983778,15.1709056 C28.0854412,15.2607489 28.07179,15.3505201 28.059854,15.4404355 C27.903472,16.6151819 28.0627844,18.042572 29.158388,18.7242987 C30.5694716,19.6023818 31.9666895,18.5263548 32.8818961,17.4703892 C33.6398631,16.59577 34.3660247,15.6917082 35.0578081,14.7613789 C35.0974039,15.5195265 35.2586461,16.2814988 35.6155088,16.9480712 C36.1286821,17.9063277 37.165964,18.5671992 38.2610672,18.5061491 C39.4565179,18.4394702 40.4858664,17.718631 41.2914341,16.8697019 C41.4053614,16.7496943 41.5166442,16.6265837 41.626712,16.5019577 C41.6730263,16.8284245 41.7670128,17.146809 41.9303277,17.4467918 C42.4176279,18.3418332 43.5193066,18.7491951 44.463817,18.3951619 C45.3948191,18.0462524 46.0454342,17.21089 46.4539716,16.3268174 C47.2780507,14.54359 47.7239683,12.5959025 47.7003109,10.623896 C47.6976664,10.4067566 47.6919486,10.1822566 47.6776541,9.95602461 C48.979599,9.87015028 50.2628896,9.47346861 51.3785054,8.7903708 C51.8731673,8.48742926 52.0587102,7.81970223 51.7630995,7.30936336" id="Fill-25" fill="#0079BF"></path>
                <path d="M30.5033981,16.6955127 C30.4670981,16.6492127 30.4711981,16.6648127 30.5033981,16.6955127" id="Fill-27" fill="#0079BF"></path>
                <path d="M30.4904929,16.68093 L30.4905929,16.68093 L30.4905929,16.68093 C30.4904929,16.68093 30.4904929,16.68093 30.4904929,16.68093" id="Fill-29" fill="#0079BF"></path>
                <path d="M30.4888929,16.67938 C30.4897929,16.68048 30.4903929,16.68128 30.4913929,16.68248 C30.4915929,16.68248 30.4918929,16.68248 30.4921929,16.68248 C30.4910929,16.68138 30.4898929,16.68038 30.4888929,16.67938" id="Fill-31" fill="#0079BF"></path>
                <path d="M30.4831429,16.68793 C30.5071429,16.68103 30.5230429,16.67643 30.5334429,16.67343 C30.5337429,16.67313 30.5338429,16.67283 30.5340429,16.67243 C30.5122429,16.67773 30.4721429,16.68703 30.4470429,16.68943 C30.4547429,16.68913 30.4624429,16.68883 30.4701429,16.68853 C30.4743429,16.68833 30.4792429,16.68813 30.4831429,16.68793" id="Fill-33" fill="#0079BF"></path>
            </g>
        </g>
    </g>
</svg>